#VRML V2.0 utf8
# 3D model generated by easyeda2kicad.py (https://github.com/uPesy/easyeda2kicad.py)

Shape{
    appearance Appearance {
        material  Material 	{
            diffuseColor 0.2 0.4627450980392157 0.23137254901960785
            specularColor 0.01568627450980392 0.03137254901960784 0.01568627450980392
            ambientIntensity 0.5122
            transparency 0.0
            shininess 0.5
        }
    }
    geometry IndexedFaceSet {
        ccw TRUE
        solid FALSE
        coord DEF co Coordinate {
            point [
                -0.4134 0.0243 0.0004, -0.4134 0.0518 0.0004, -0.0514 0.0518 0.0004, 0.0639 0.0157 0.0004, 0.0674 0.0161 0.0004, 0.0966 -0.0103 0.0004, 0.0752 0.0153 0.0004, 0.0811 0.0131 0.0004, 0.097 -0.0164 0.0004, 0.0962 -0.0249 0.0004, 0.094 -0.0317 0.0004, 0.0908 -0.0371 0.0004, 0.0871 -0.041 0.0004, 0.0823 -0.0443 0.0004, 0.0865 0.0095 0.0004, 0.0913 0.0043 0.0004, 0.0945 -0.0018 0.0004, 0.0765 -0.0464 0.0004, 0.0692 -0.0472 0.0004, 0.0639 -0.0466 0.0004, 0.0413 -0.0554 0.0004, 0.0413 0.0243 0.0004, 0.049 -0.0422 0.0004, 0.0587 -0.0461 0.0004, 0.0504 -0.043 0.0004, 0.0578 0.0149 0.0004, 0.049 0.0111 0.0004, 0.049 0.0217 0.0004, 0.049 -0.0508 0.0004, 0.0574 -0.0543 0.0004, 0.0639 -0.0554 0.0004, 0.0639 -0.0552 0.0004, 0.0653 -0.0554 0.0004, 0.0675 0.0248 0.0004, 0.0639 0.0245 0.0004, 0.0639 0.0518 0.0004, 0.0605 0.0243 0.0004, 0.4134 0.0518 0.0004, 0.4134 0.0243 0.0004, 0.0734 0.0243 0.0004, 0.1546 -0.0549 0.0004, 0.0753 -0.0554 0.0004, 0.1143 -0.0549 0.0004, 0.0803 -0.0549 0.0004, 0.088 -0.0522 0.0004, 0.1034 0.0031 0.0004, 0.0988 0.0105 0.0004, 0.144 0.0238 0.0004, 0.0917 0.0173 0.0004, 0.0842 0.0216 0.0004, 0.0943 -0.0482 0.0004, 0.1002 -0.042 0.0004, 0.1143 -0.0463 0.0004, 0.1044 -0.0345 0.0004, 0.144 -0.0463 0.0004, 0.1068 -0.0261 0.0004, 0.1075 -0.017 0.0004, 0.1064 -0.0058 0.0004, 0.0685 -0.0558 0.0004, 0.0639 -0.0673 0.0004, 0.0706 -0.0559 0.0004, -0.1047 -0.0549 0.0004, -0.0931 -0.0549 0.0004, -0.0514 -0.0554 0.0004, -0.1527 -0.0549 0.0004, -0.1447 -0.0328 0.0004, -0.1122 -0.0328 0.0004, -0.0514 0.0243 0.0004, -0.1229 0.0238 0.0004, -0.1335 0.0238 0.0004, -0.0576 0.0226 0.0004, -0.0668 0.0194 0.0004, -0.0754 0.0136 0.0004, -0.0725 -0.0466 0.0004, -0.0789 -0.0404 0.0004, -0.0835 -0.0333 0.0004, -0.0755 0.0136 0.0004, -0.081 0.0074 0.0004, -0.0847 0.0006 0.0004, -0.0514 -0.0544 0.0004, -0.0552 -0.0541 0.0004, -0.0642 -0.0514 0.0004, -0.0868 -0.0071 0.0004, -0.0874 -0.0146 0.0004, -0.0863 -0.0251 0.0004, -0.0454 -0.0549 0.0004, -0.024 -0.0549 0.0004, -0.0163 -0.0554 0.0004, -0.0163 0.0243 0.0004, -0.024 0.0238 0.0004, -0.0462 0.0238 0.0004, -0.0514 0.0233 0.0004, 0.0639 0.5315 0.0004, 0.0639 0.6102 0.0004, 0.2165 0.6102 0.0004, 0.5906 0.5315 0.0004, 0.2559 0.6496 0.0004, 0.5906 0.7874 0.0004, 0.2559 0.787 0.0004, 0.0639 0.7874 0.0004, 0.0413 0.6102 0.0004, 0.0413 0.5315 0.0004, 0.0413 0.0518 0.0004, -0.2165 0.6102 0.0004, -0.0514 0.6102 0.0004, -0.0514 0.5315 0.0004, -0.5906 0.5315 0.0004, -0.2559 0.787 0.0004, -0.2559 0.6496 0.0004, 0.0639 0.787 0.0004, 0.0413 0.787 0.0004, 0.0413 0.7874 0.0004, -0.0163 0.787 0.0004, -0.0163 0.7874 0.0004, -0.0514 0.787 0.0004, -0.0514 0.7874 0.0004, -0.5906 0.7874 0.0004, 0.0787 -0.0787 0.0004, 0.0787 -0.4528 0.0004, 0.5906 -0.5315 0.0004, 0.0639 -0.5315 0.0004, 0.2559 -0.4528 0.0004, 0.2559 -0.0787 0.0004, 0.4134 -0.0673 0.0004, 0.0754 0.0241 0.0004, 0.1546 0.0238 0.0004, 0.4134 -0.0554 0.0004, 0.0787 0.4528 0.0004, 0.0787 0.0787 0.0004, 0.2559 0.0787 0.0004, 0.2559 0.4528 0.0004, 0.5906 0.0518 0.0004, 0.5902 0.4528 0.0004, 0.4528 0.4528 0.0004, 0.4134 0.4134 0.0004, 0.4134 -0.4134 0.0004, 0.4528 -0.4528 0.0004, 0.5902 -0.4528 0.0004, 0.5906 -0.0673 0.0004, 0.5902 -0.0673 0.0004, 0.5906 -0.0554 0.0004, 0.5902 -0.0554 0.0004, 0.5906 0.0243 0.0004, 0.5902 0.0243 0.0004, 0.5902 0.0518 0.0004, -0.2559 0.4528 0.0004, -0.2559 0.0787 0.0004, -0.0787 0.0787 0.0004, -0.0787 0.4528 0.0004, -0.1642 -0.0549 0.0004, -0.4134 -0.0554 0.0004, -0.0787 -0.4528 0.0004, -0.0514 -0.5315 0.0004, -0.2559 -0.4528 0.0004, -0.5906 -0.5315 0.0004, -0.5906 -0.0673 0.0004, -0.5902 -0.4528 0.0004, -0.4528 -0.4528 0.0004, -0.4134 -0.4134 0.0004, -0.2559 -0.0787 0.0004, -0.4134 -0.0673 0.0004, -0.0514 -0.0673 0.0004, -0.0787 -0.0787 0.0004, -0.4134 0.4134 0.0004, -0.4528 0.4528 0.0004, -0.5902 0.4528 0.0004, -0.5906 0.0518 0.0004, -0.5902 0.0518 0.0004, -0.5906 0.0243 0.0004, -0.5902 0.0243 0.0004, -0.5906 -0.0554 0.0004, -0.5902 -0.0554 0.0004, -0.5902 -0.0673 0.0004, 0.0413 -0.6102 0.0004, 0.0413 -0.5315 0.0004, -0.0163 -0.6102 0.0004, -0.0163 -0.5315 0.0004, -0.0514 -0.6102 0.0004, -0.2165 -0.6102 0.0004, -0.2559 -0.6496 0.0004, -0.5906 -0.7874 0.0004, -0.2559 -0.787 0.0004, -0.0514 -0.7874 0.0004, 0.2559 -0.787 0.0004, 0.2559 -0.6496 0.0004, 0.2165 -0.6102 0.0004, 0.0639 -0.6102 0.0004, 0.5906 -0.7874 0.0004, 0.0639 -0.7874 0.0004, 0.0639 -0.787 0.0004, 0.0413 -0.7874 0.0004, 0.0413 -0.787 0.0004, -0.0163 -0.7874 0.0004, -0.0163 -0.787 0.0004, -0.0514 -0.787 0.0004, 0.0581 0.0241 0.0004, -0.0163 0.6102 0.0004, -0.0163 0.5315 0.0004, -0.0163 0.0518 0.0004, -0.0067 0.0238 0.0004, -0.0067 0.0152 0.0004, -0.0086 -0.0463 0.0004, -0.0086 -0.0549 0.0004, 0.0336 -0.0549 0.0004, 0.0336 0.0238 0.0004, 0.023 -0.0194 0.0004, 0.023 -0.0463 0.0004, -0.0048 -0.0194 0.0004, -0.0048 -0.0107 0.0004, 0.023 -0.0107 0.0004, 0.023 0.0152 0.0004, 0.0413 -0.0673 0.0004, -0.0163 -0.0673 0.0004
            ]
        }
        coordIndex [
            0,1,2,-1,3,4,5,-1,5,4,6,-1,5,6,7,-1,5,8,3,-1,3,8,9,-1,3,9,10,-1,10,11,3,-1,3,11,12,-1,3,12,13,-1,7,14,5,-1,5,14,15,-1,5,15,16,-1,13,17,3,-1,3,17,18,-1,3,18,19,-1,20,21,22,-1,19,23,3,-1,3,23,24,-1,3,24,25,-1,25,24,22,-1,25,22,26,-1,26,22,21,-1,26,21,27,-1,22,28,20,-1,20,28,29,-1,20,29,30,-1,30,29,31,-1,30,31,32,-1,33,34,35,-1,35,34,36,-1,37,38,39,-1,40,41,42,-1,42,41,43,-1,42,43,44,-1,45,46,47,-1,47,46,48,-1,47,48,49,-1,44,50,42,-1,42,50,51,-1,42,51,52,-1,52,51,53,-1,52,53,54,-1,53,55,54,-1,54,55,56,-1,54,56,47,-1,47,56,57,-1,47,57,45,-1,32,58,59,-1,59,58,60,-1,59,60,41,-1,61,62,63,-1,64,65,66,-1,67,68,69,-1,67,70,68,-1,68,70,71,-1,68,71,72,-1,73,62,74,-1,74,62,75,-1,72,76,68,-1,68,76,77,-1,68,77,78,-1,79,63,80,-1,80,63,62,-1,80,62,81,-1,81,62,73,-1,78,82,68,-1,68,82,83,-1,68,83,62,-1,62,83,84,-1,62,84,75,-1,79,85,63,-1,63,85,86,-1,63,86,87,-1,87,86,88,-1,89,90,67,-1,67,90,91,-1,67,91,70,-1,92,93,94,-1,95,96,97,-1,97,96,98,-1,97,98,99,-1,100,93,101,-1,101,93,92,-1,101,92,102,-1,103,104,105,-1,106,107,108,-1,98,109,99,-1,99,109,110,-1,99,110,111,-1,111,110,112,-1,111,112,113,-1,113,112,114,-1,113,114,115,-1,115,114,107,-1,115,107,116,-1,116,107,106,-1,59,117,118,-1,119,120,121,-1,121,120,118,-1,121,122,123,-1,49,124,47,-1,47,124,39,-1,47,39,125,-1,125,39,38,-1,125,38,40,-1,40,38,126,-1,40,126,41,-1,41,126,123,-1,41,123,59,-1,59,123,122,-1,59,122,117,-1,127,128,35,-1,35,128,129,-1,130,92,95,-1,95,92,94,-1,95,94,96,-1,131,132,95,-1,95,132,133,-1,95,133,130,-1,130,133,134,-1,130,134,129,-1,129,134,37,-1,129,37,35,-1,35,37,39,-1,35,39,33,-1,123,135,121,-1,121,135,136,-1,121,136,119,-1,119,136,137,-1,119,137,138,-1,138,137,139,-1,138,139,140,-1,140,139,141,-1,140,141,142,-1,142,141,143,-1,142,143,131,-1,131,143,144,-1,131,144,132,-1,108,103,106,-1,106,103,105,-1,106,105,145,-1,145,146,1,-1,1,146,2,-1,2,146,147,-1,2,147,105,-1,105,147,148,-1,105,148,145,-1,66,61,64,-1,64,61,63,-1,64,63,149,-1,149,63,150,-1,149,150,69,-1,69,150,0,-1,69,0,67,-1,67,0,2,-1,151,152,153,-1,153,152,154,-1,155,156,154,-1,154,156,157,-1,154,157,153,-1,153,157,158,-1,153,158,159,-1,158,160,159,-1,159,160,161,-1,159,161,162,-1,1,163,145,-1,145,163,164,-1,145,164,106,-1,106,164,165,-1,106,165,166,-1,166,165,167,-1,166,167,168,-1,168,167,169,-1,168,169,170,-1,170,169,171,-1,170,171,155,-1,155,171,172,-1,155,172,156,-1,120,173,174,-1,174,173,175,-1,174,175,176,-1,176,175,177,-1,176,177,152,-1,152,177,178,-1,152,178,154,-1,154,178,179,-1,154,179,180,-1,180,179,181,-1,180,181,182,-1,183,184,119,-1,119,184,185,-1,119,185,120,-1,120,185,186,-1,120,186,173,-1,119,187,183,-1,183,187,188,-1,183,188,189,-1,189,188,190,-1,189,190,191,-1,191,190,192,-1,191,192,193,-1,193,192,182,-1,193,182,194,-1,194,182,181,-1,130,127,92,-1,92,127,35,-1,92,35,102,-1,102,35,36,-1,102,36,21,-1,21,36,195,-1,21,195,27,-1,104,196,105,-1,105,196,197,-1,105,197,2,-1,2,197,198,-1,2,198,67,-1,67,198,88,-1,67,88,89,-1,89,88,86,-1,196,100,197,-1,197,100,101,-1,197,101,198,-1,198,101,102,-1,198,102,88,-1,88,102,21,-1,88,21,199,-1,199,200,88,-1,88,200,201,-1,88,201,87,-1,87,201,202,-1,87,202,20,-1,20,202,203,-1,20,203,21,-1,21,203,204,-1,21,204,199,-1,205,206,207,-1,207,206,201,-1,207,201,208,-1,208,201,200,-1,208,200,209,-1,209,200,210,-1,32,59,30,-1,30,59,211,-1,30,211,20,-1,20,211,212,-1,20,212,87,-1,87,212,161,-1,87,161,63,-1,63,161,160,-1,63,160,150,-1,118,120,59,-1,59,120,174,-1,59,174,211,-1,211,174,176,-1,211,176,212,-1,212,176,152,-1,212,152,161,-1,161,152,151,-1,161,151,162,-1,
        ]
    }
}
Shape{
    appearance Appearance {
        material  Material 	{
            diffuseColor 0.8274509803921568 0.6666666666666666 0.12941176470588237
            specularColor 0.8274509803921568 0.6666666666666666 0.12941176470588237
            ambientIntensity 0.6535
            transparency 0.0
            shininess 0.5
        }
    }
    geometry IndexedFaceSet {
        ccw TRUE
        solid FALSE
        coord DEF co Coordinate {
            point [
                -0.5281 0.725 0.1461, -0.5044 0.7093 0.1461, -0.5118 0.7375 0.1461, -0.4946 0.7154 0.1461, -0.4928 0.7453 0.1461, -0.4838 0.7192 0.1461, -0.4724 0.748 0.1461, -0.4724 0.7205 0.1461, 0.4724 0.748 0.1461, 0.4724 0.7205 0.1461, 0.4928 0.7453 0.1461, 0.4838 0.7192 0.1461, 0.5118 0.7375 0.1461, 0.4946 0.7154 0.1461, 0.5281 0.725 0.1461, 0.5044 0.7093 0.1461, 0.5125 0.7012 0.1461, 0.5406 0.7087 0.1461, 0.5186 0.6915 0.1461, 0.5485 0.6897 0.1461, 0.5223 0.6807 0.1461, 0.5512 0.6693 0.1461, 0.5236 0.6693 0.1461, 0.5512 -0.6693 0.1461, 0.5236 -0.6693 0.1461, 0.5485 -0.6897 0.1461, 0.5219 -0.6825 0.1461, 0.5406 -0.7087 0.1461, 0.5168 -0.6949 0.1461, 0.5281 -0.725 0.1461, 0.5086 -0.7055 0.1461, 0.5118 -0.7375 0.1461, 0.498 -0.7136 0.1461, 0.4928 -0.7453 0.1461, 0.4857 -0.7187 0.1461, 0.4724 -0.748 0.1461, 0.4724 -0.7205 0.1461, -0.4724 -0.748 0.1461, -0.4724 -0.7205 0.1461, -0.4928 -0.7453 0.1461, -0.4857 -0.7187 0.1461, -0.5118 -0.7375 0.1461, -0.498 -0.7136 0.1461, -0.5281 -0.725 0.1461, -0.5086 -0.7055 0.1461, -0.5406 -0.7087 0.1461, -0.5168 -0.6949 0.1461, -0.5485 -0.6897 0.1461, -0.5219 -0.6825 0.1461, -0.5512 -0.6693 0.1461, -0.5236 -0.6693 0.1461, -0.5512 0.6693 0.1461, -0.5236 0.6693 0.1461, -0.5485 0.6897 0.1461, -0.5223 0.6807 0.1461, -0.5406 0.7087 0.1461, -0.5186 0.6915 0.1461, -0.5125 0.7012 0.1461
            ]
        }
        coordIndex [
            0,1,2,-1,2,1,3,-1,2,3,4,-1,4,3,5,-1,4,5,6,-1,6,5,7,-1,6,7,8,-1,8,7,9,-1,8,9,10,-1,10,9,11,-1,10,11,12,-1,12,11,13,-1,12,13,14,-1,13,15,14,-1,14,15,16,-1,14,16,17,-1,17,16,18,-1,17,18,19,-1,19,18,20,-1,19,20,21,-1,21,20,22,-1,21,22,23,-1,23,22,24,-1,23,24,25,-1,25,24,26,-1,25,26,27,-1,27,26,28,-1,27,28,29,-1,29,28,30,-1,29,30,31,-1,31,30,32,-1,31,32,33,-1,33,32,34,-1,33,34,35,-1,35,34,36,-1,35,36,37,-1,37,36,38,-1,37,38,39,-1,39,38,40,-1,39,40,41,-1,41,40,42,-1,41,42,43,-1,43,42,44,-1,43,44,45,-1,45,44,46,-1,45,46,47,-1,47,46,48,-1,47,48,49,-1,49,48,50,-1,49,50,51,-1,51,50,52,-1,51,52,53,-1,53,52,54,-1,53,54,55,-1,55,54,56,-1,55,56,0,-1,0,56,57,-1,0,57,1,-1,
        ]
    }
}
Shape{
    appearance Appearance {
        material  Material 	{
            diffuseColor 0.2 0.4627450980392157 0.23137254901960785
            specularColor 0.01568627450980392 0.03137254901960784 0.01568627450980392
            ambientIntensity 0.5122
            transparency 0.0
            shininess 0.5
        }
    }
    geometry IndexedFaceSet {
        ccw TRUE
        solid FALSE
        coord DEF co Coordinate {
            point [
                0.5906 -0.7874 0.1185, 0.5512 -0.6693 0.1185, 0.5485 -0.6897 0.1185, 0.5512 0.6693 0.1185, 0.5906 0.7874 0.1185, 0.5485 0.6897 0.1185, 0.4928 0.7453 0.1185, 0.5118 0.7375 0.1185, 0.5406 -0.7087 0.1185, 0.5281 -0.725 0.1185, 0.5118 -0.7375 0.1185, -0.4928 -0.7453 0.1185, -0.5118 -0.7375 0.1185, -0.5906 -0.7874 0.1185, -0.5281 -0.725 0.1185, -0.5406 -0.7087 0.1185, 0.5281 0.725 0.1185, 0.5406 0.7087 0.1185, 0.4928 -0.7453 0.1185, 0.4724 -0.748 0.1185, -0.4724 -0.748 0.1185, -0.5485 -0.6897 0.1185, -0.5512 -0.6693 0.1185, -0.5906 0.7874 0.1185, -0.5512 0.6693 0.1185, -0.5485 0.6897 0.1185, -0.5406 0.7087 0.1185, -0.5281 0.725 0.1185, -0.5118 0.7375 0.1185, -0.4928 0.7453 0.1185, -0.4724 0.748 0.1185, 0.4724 0.748 0.1185, 0.5906 -0.7874 0.0004, 0.5906 -0.5315 0.0004, 0.5906 -0.0673 0.0004, 0.5906 -0.0554 0.0004, 0.5906 0.0243 0.0004, 0.5906 0.0518 0.0004, 0.5906 0.5315 0.0004, 0.5906 0.7874 0.0004, 0.0639 0.7874 0.0004, 0.0413 0.7874 0.0004, -0.0163 0.7874 0.0004, -0.0514 0.7874 0.0004, -0.5906 0.7874 0.0004, -0.5906 0.5315 0.0004, -0.5906 -0.5315 0.0004, -0.5906 -0.7874 0.0004, -0.5906 -0.0673 0.0004, -0.5906 0.0518 0.0004, -0.5906 0.0243 0.0004, -0.5906 -0.0554 0.0004, 0.0639 -0.7874 0.0004, -0.0514 -0.7874 0.0004, -0.0163 -0.7874 0.0004, 0.0413 -0.7874 0.0004
            ]
        }
        coordIndex [
            0,1,2,-1,1,0,3,-1,3,0,4,-1,3,4,5,-1,6,7,4,-1,2,8,0,-1,0,8,9,-1,0,9,10,-1,11,12,13,-1,13,12,14,-1,13,14,15,-1,7,16,4,-1,4,16,17,-1,4,17,5,-1,10,18,0,-1,0,18,19,-1,0,19,13,-1,13,19,20,-1,13,20,11,-1,15,21,13,-1,13,21,22,-1,13,22,23,-1,23,22,24,-1,23,24,25,-1,25,26,23,-1,23,26,27,-1,23,27,28,-1,28,29,23,-1,23,29,30,-1,23,30,4,-1,4,30,31,-1,4,31,6,-1,0,32,33,-1,33,34,0,-1,0,34,35,-1,0,35,4,-1,4,35,36,-1,36,37,4,-1,4,37,38,-1,4,38,39,-1,4,39,40,-1,40,41,4,-1,4,41,42,-1,4,42,23,-1,23,42,43,-1,23,43,44,-1,23,44,45,-1,46,47,13,-1,46,13,48,-1,45,49,23,-1,23,49,50,-1,23,50,13,-1,13,50,51,-1,13,51,48,-1,52,32,0,-1,47,53,13,-1,13,53,54,-1,13,54,0,-1,0,54,55,-1,0,55,52,-1,
        ]
    }
}
Shape{
    appearance Appearance {
        material  Material 	{
            diffuseColor 0.8274509803921568 0.6666666666666666 0.12941176470588237
            specularColor 0.8274509803921568 0.6666666666666666 0.12941176470588237
            ambientIntensity 0.6535
            transparency 0.0
            shininess 0.5
        }
    }
    geometry IndexedFaceSet {
        ccw TRUE
        solid FALSE
        coord DEF co Coordinate {
            point [
                0.5512 0.6693 0.1461, 0.5512 -0.6693 0.1461, 0.5512 0.6693 0.1185, 0.5512 -0.6693 0.1185, -0.4724 0.748 0.1461, 0.4724 0.748 0.1461, -0.4724 0.748 0.1185, 0.4724 0.748 0.1185, -0.5512 0.6693 0.1185, -0.5512 -0.6693 0.1185, -0.5512 0.6693 0.1461, -0.5512 -0.6693 0.1461, 0.4724 -0.748 0.1461, -0.4724 -0.748 0.1461, 0.4724 -0.748 0.1185, -0.4724 -0.748 0.1185, -0.4928 0.7453 0.1185, -0.4928 0.7453 0.1461, -0.5118 0.7375 0.1185, -0.5118 0.7375 0.1461, -0.5281 0.725 0.1185, -0.5281 0.725 0.1461, -0.5406 0.7087 0.1185, -0.5406 0.7087 0.1461, -0.5485 0.6897 0.1185, -0.5485 0.6897 0.1461, 0.5485 0.6897 0.1185, 0.5485 0.6897 0.1461, 0.5406 0.7087 0.1185, 0.5406 0.7087 0.1461, 0.5281 0.725 0.1185, 0.5281 0.725 0.1461, 0.5118 0.7375 0.1185, 0.5118 0.7375 0.1461, 0.4928 0.7453 0.1185, 0.4928 0.7453 0.1461, 0.4928 -0.7453 0.1185, 0.4928 -0.7453 0.1461, 0.5118 -0.7375 0.1185, 0.5118 -0.7375 0.1461, 0.5281 -0.725 0.1185, 0.5281 -0.725 0.1461, 0.5406 -0.7087 0.1185, 0.5406 -0.7087 0.1461, 0.5485 -0.6897 0.1185, 0.5485 -0.6897 0.1461, -0.5485 -0.6897 0.1185, -0.5485 -0.6897 0.1461, -0.5406 -0.7087 0.1185, -0.5406 -0.7087 0.1461, -0.5281 -0.725 0.1185, -0.5281 -0.725 0.1461, -0.5118 -0.7375 0.1185, -0.5118 -0.7375 0.1461, -0.4928 -0.7453 0.1185, -0.4928 -0.7453 0.1461, 0.5236 0.6693 0.1461, 0.5223 0.6807 0.1461, 0.5236 0.6693 0.3154, 0.5221 0.6807 0.3154, 0.5219 0.6825 0.3154, 0.5186 0.6915 0.1461, 0.5182 0.6914 0.3154, 0.5168 0.6949 0.3154, 0.5125 0.7012 0.1461, 0.5121 0.7009 0.3154, 0.5086 0.7055 0.3154, 0.5044 0.7093 0.1461, 0.5041 0.709 0.3154, 0.498 0.7136 0.3154, 0.4946 0.7154 0.1461, 0.4945 0.7151 0.3154, 0.4857 0.7187 0.3154, 0.4838 0.7192 0.1461, 0.4838 0.719 0.3154, 0.4724 0.7205 0.1461, 0.4724 0.7205 0.3154, -0.4724 0.7205 0.3154, -0.4724 0.7205 0.1461, -0.4838 0.7192 0.1461, -0.4838 0.719 0.3154, -0.4857 0.7187 0.3154, -0.4946 0.7154 0.1461, -0.4945 0.7151 0.3154, -0.498 0.7136 0.3154, -0.5044 0.7093 0.1461, -0.5041 0.709 0.3154, -0.5086 0.7055 0.3154, -0.5125 0.7012 0.1461, -0.5121 0.7009 0.3154, -0.5168 0.6949 0.3154, -0.5186 0.6915 0.1461, -0.5182 0.6914 0.3154, -0.5219 0.6825 0.3154, -0.5223 0.6807 0.1461, -0.5221 0.6807 0.3154, -0.5236 0.6693 0.1461, -0.5236 0.6693 0.3154, -0.5236 -0.6693 0.3154, -0.5236 -0.6693 0.1461, -0.5219 -0.6825 0.1461, -0.5219 -0.6825 0.3154, -0.5168 -0.6949 0.1461, -0.5168 -0.6949 0.3154, -0.5086 -0.7055 0.1461, -0.5086 -0.7055 0.3154, -0.498 -0.7136 0.1461, -0.498 -0.7136 0.3154, -0.4857 -0.7187 0.1461, -0.4857 -0.7187 0.3154, -0.4724 -0.7205 0.1461, -0.4724 -0.7205 0.3154, 0.4724 -0.7205 0.3154, 0.4724 -0.7205 0.1461, 0.4857 -0.7187 0.1461, 0.4857 -0.7187 0.3154, 0.498 -0.7136 0.1461, 0.498 -0.7136 0.3154, 0.5086 -0.7055 0.1461, 0.5086 -0.7055 0.3154, 0.5168 -0.6949 0.1461, 0.5168 -0.6949 0.3154, 0.5219 -0.6825 0.1461, 0.5219 -0.6825 0.3154, 0.5236 -0.6693 0.1461, 0.5236 -0.6693 0.3154, 0.1108 0.1644 0.3941, 0.0905 0.1379 0.3941, 0.4449 -0.6417 0.3941, 0.1108 0.2923 0.3941, 0.1236 0.2615 0.3941, 0.4449 0.6417 0.3941, 0.128 0.2283 0.3941, 0.1236 0.1952 0.3941, -0.064 0.1175 0.3941, -0.0905 0.1379 0.3941, -0.4449 -0.6417 0.3941, -0.0331 0.1048 0.3941, 0.0331 0.3519 0.3941, 0.064 0.3392 0.3941, 0.0905 0.3188 0.3941, 0.064 0.1175 0.3941, 0.0331 0.1048 0.3941, 0.0 0.1004 0.3941, -0.0905 0.3188 0.3941, -0.4449 0.6417 0.3941, -0.1108 0.2923 0.3941, -0.1236 0.2615 0.3941, -0.1108 0.1644 0.3941, -0.1236 0.1952 0.3941, -0.128 0.2283 0.3941, -0.064 0.3392 0.3941, -0.0331 0.3519 0.3941, 0.0 0.3563 0.3941, -0.4832 -0.6552 0.3841, -0.471 -0.6509 0.3896, -0.4832 0.6552 0.3841, -0.471 0.6509 0.3896, -0.4652 -0.6488 0.3911, -0.4652 0.6488 0.3911, -0.4581 -0.6464 0.393, -0.4581 0.6464 0.393, -0.5126 -0.6654 0.3545, -0.5092 -0.6642 0.3608, -0.5126 0.6654 0.3545, -0.5025 -0.6619 0.3691, -0.5092 0.6642 0.3608, -0.4842 -0.6555 0.3835, -0.4842 0.6555 0.3835, -0.4939 -0.6589 0.377, -0.4939 0.6589 0.377, -0.5005 -0.6612 0.3709, -0.5005 0.6612 0.3709, -0.5025 0.6619 0.3691, -0.5178 -0.6672 0.3451, -0.5178 0.6672 0.3451, -0.5206 -0.6682 0.3356, -0.5206 0.6682 0.3356, -0.5222 0.6688 0.33, -0.5222 -0.6688 0.33, -0.4714 -0.7174 0.3356, -0.4704 -0.7146 0.3451, -0.4817 -0.7117 0.3485, -0.5202 -0.6816 0.332, -0.4686 -0.7095 0.3545, -0.4674 -0.706 0.3608, -0.4764 -0.7021 0.3645, -0.5148 -0.6785 0.3485, -0.4643 -0.6973 0.3709, -0.462 -0.6907 0.377, -0.4681 -0.6866 0.3795, -0.4898 -0.665 0.3795, -0.4524 -0.6522 0.3933, -0.451 -0.6536 0.3932, -0.4539 -0.6507 0.3933, -0.452 -0.662 0.3911, -0.4495 -0.655 0.393, -0.4567 -0.6478 0.3932, -0.4684 -0.6538 0.3904, -0.4553 -0.6493 0.3933, -0.454 -0.6679 0.3896, -0.457 -0.6652 0.3904, -0.4599 -0.6625 0.3909, -0.4628 -0.6596 0.391, -0.4656 -0.6567 0.3909, -0.4583 -0.6801 0.3841, -0.4628 -0.6765 0.3857, -0.4673 -0.6726 0.3867, -0.4716 -0.6684 0.387, -0.4757 -0.6641 0.3867, -0.4796 -0.6597 0.3857, -0.485 -0.6709 0.381, -0.4797 -0.6766 0.3816, -0.4741 -0.6819 0.381, -0.4586 -0.6811 0.3835, -0.465 -0.6993 0.3691, -0.4726 -0.6951 0.3723, -0.48 -0.6899 0.3743, -0.4869 -0.6837 0.3749, -0.4931 -0.6769 0.3743, -0.4983 -0.6695 0.3723, -0.4851 -0.6967 0.3667, -0.493 -0.6898 0.3675, -0.4998 -0.6819 0.3667, -0.5053 -0.6733 0.3645, -0.4923 -0.7062 0.3506, -0.5017 -0.6986 0.3514, -0.5094 -0.6892 0.3506, -0.472 -0.7191 0.33, -0.4847 -0.717 0.332, -0.4966 -0.7118 0.3333, -0.5069 -0.7038 0.3337, -0.5149 -0.6935 0.3333, -0.452 0.662 0.3911, -0.457 0.6652 0.3904, -0.4495 0.655 0.393, -0.451 0.6536 0.3932, -0.4796 0.6597 0.3857, -0.4684 0.6538 0.3904, -0.4567 0.6478 0.3932, -0.454 0.6679 0.3896, -0.4583 0.6801 0.3841, -0.4628 0.6765 0.3857, -0.4586 0.6811 0.3835, -0.4681 0.6866 0.3795, -0.462 0.6907 0.377, -0.4643 0.6973 0.3709, -0.4726 0.6951 0.3723, -0.465 0.6993 0.3691, -0.4674 0.706 0.3608, -0.4898 0.665 0.3795, -0.4983 0.6695 0.3723, -0.5053 0.6733 0.3645, -0.4686 0.7095 0.3545, -0.4817 0.7117 0.3485, -0.4764 0.7021 0.3645, -0.5148 0.6785 0.3485, -0.472 0.7191 0.33, -0.4847 0.717 0.332, -0.4714 0.7174 0.3356, -0.4704 0.7146 0.3451, -0.4524 0.6522 0.3933, -0.4539 0.6507 0.3933, -0.4599 0.6625 0.3909, -0.4628 0.6596 0.391, -0.4673 0.6726 0.3867, -0.4716 0.6684 0.387, -0.4741 0.6819 0.381, -0.4797 0.6766 0.3816, -0.48 0.6899 0.3743, -0.4869 0.6837 0.3749, -0.4851 0.6967 0.3667, -0.493 0.6898 0.3675, -0.4923 0.7062 0.3506, -0.5017 0.6986 0.3514, -0.4966 0.7118 0.3333, -0.5069 0.7038 0.3337, -0.4553 0.6493 0.3933, -0.4656 0.6567 0.3909, -0.4757 0.6641 0.3867, -0.485 0.6709 0.381, -0.4931 0.6769 0.3743, -0.4998 0.6819 0.3667, -0.5094 0.6892 0.3506, -0.5149 0.6935 0.3333, -0.5202 0.6816 0.332, 0.4495 -0.655 0.393, 0.452 -0.662 0.3911, 0.454 -0.6679 0.3896, 0.465 -0.6993 0.3691, 0.4643 -0.6973 0.3709, 0.462 -0.6907 0.377, 0.4586 -0.6811 0.3835, 0.4583 -0.6801 0.3841, 0.4686 -0.7095 0.3545, 0.4674 -0.706 0.3608, 0.4704 -0.7146 0.3451, 0.472 -0.7191 0.33, 0.4714 -0.7174 0.3356, 0.472 0.7191 0.33, 0.4686 0.7095 0.3545, 0.4704 0.7146 0.3451, 0.4714 0.7174 0.3356, 0.4643 0.6973 0.3709, 0.465 0.6993 0.3691, 0.4674 0.706 0.3608, 0.462 0.6907 0.377, 0.4586 0.6811 0.3835, 0.452 0.662 0.3911, 0.454 0.6679 0.3896, 0.4583 0.6801 0.3841, 0.4495 0.655 0.393, 0.5206 -0.6682 0.3356, 0.5178 -0.6672 0.3451, 0.5148 -0.6785 0.3485, 0.4847 -0.717 0.332, 0.5126 -0.6654 0.3545, 0.5092 -0.6642 0.3608, 0.5053 -0.6733 0.3645, 0.4817 -0.7117 0.3485, 0.5005 -0.6612 0.3709, 0.4939 -0.6589 0.377, 0.4898 -0.665 0.3795, 0.4681 -0.6866 0.3795, 0.4553 -0.6493 0.3933, 0.4567 -0.6478 0.3932, 0.4539 -0.6507 0.3933, 0.4652 -0.6488 0.3911, 0.4581 -0.6464 0.393, 0.451 -0.6536 0.3932, 0.457 -0.6652 0.3904, 0.4524 -0.6522 0.3933, 0.471 -0.6509 0.3896, 0.4684 -0.6538 0.3904, 0.4656 -0.6567 0.3909, 0.4628 -0.6596 0.391, 0.4599 -0.6625 0.3909, 0.4832 -0.6552 0.3841, 0.4796 -0.6597 0.3857, 0.4757 -0.6641 0.3867, 0.4716 -0.6684 0.387, 0.4673 -0.6726 0.3867, 0.4628 -0.6765 0.3857, 0.4741 -0.6819 0.381, 0.4797 -0.6766 0.3816, 0.485 -0.6709 0.381, 0.4842 -0.6555 0.3835, 0.5025 -0.6619 0.3691, 0.4983 -0.6695 0.3723, 0.4931 -0.6769 0.3743, 0.4869 -0.6837 0.3749, 0.48 -0.6899 0.3743, 0.4726 -0.6951 0.3723, 0.4998 -0.6819 0.3667, 0.493 -0.6898 0.3675, 0.4851 -0.6967 0.3667, 0.4764 -0.7021 0.3645, 0.5094 -0.6892 0.3506, 0.5017 -0.6986 0.3514, 0.4923 -0.7062 0.3506, 0.5222 -0.6688 0.33, 0.5202 -0.6816 0.332, 0.5149 -0.6935 0.3333, 0.5069 -0.7038 0.3337, 0.4966 -0.7118 0.3333, 0.4652 0.6488 0.3911, 0.4684 0.6538 0.3904, 0.4581 0.6464 0.393, 0.4567 0.6478 0.3932, 0.4628 0.6765 0.3857, 0.457 0.6652 0.3904, 0.451 0.6536 0.3932, 0.471 0.6509 0.3896, 0.4832 0.6552 0.3841, 0.4796 0.6597 0.3857, 0.4842 0.6555 0.3835, 0.4898 0.665 0.3795, 0.4939 0.6589 0.377, 0.5005 0.6612 0.3709, 0.4983 0.6695 0.3723, 0.5025 0.6619 0.3691, 0.5092 0.6642 0.3608, 0.4681 0.6866 0.3795, 0.4726 0.6951 0.3723, 0.4764 0.7021 0.3645, 0.5126 0.6654 0.3545, 0.5148 0.6785 0.3485, 0.5053 0.6733 0.3645, 0.4817 0.7117 0.3485, 0.5222 0.6688 0.33, 0.5202 0.6816 0.332, 0.5206 0.6682 0.3356, 0.5178 0.6672 0.3451, 0.4553 0.6493 0.3933, 0.4539 0.6507 0.3933, 0.4656 0.6567 0.3909, 0.4628 0.6596 0.391, 0.4757 0.6641 0.3867, 0.4716 0.6684 0.387, 0.485 0.6709 0.381, 0.4797 0.6766 0.3816, 0.4931 0.6769 0.3743, 0.4869 0.6837 0.3749, 0.4998 0.6819 0.3667, 0.493 0.6898 0.3675, 0.5094 0.6892 0.3506, 0.5017 0.6986 0.3514, 0.5149 0.6935 0.3333, 0.5069 0.7038 0.3337, 0.4524 0.6522 0.3933, 0.4599 0.6625 0.3909, 0.4673 0.6726 0.3867, 0.4741 0.6819 0.381, 0.48 0.6899 0.3743, 0.4851 0.6967 0.3667, 0.4923 0.7062 0.3506, 0.4966 0.7118 0.3333, 0.4847 0.717 0.332, 0.128 0.2283 0.3744, 0.1236 0.2615 0.3744, 0.1108 0.2923 0.3744, 0.0905 0.3188 0.3744, 0.064 0.3392 0.3744, 0.0331 0.3519 0.3744, 0.0 0.3563 0.3744, -0.0331 0.3519 0.3744, -0.064 0.3392 0.3744, -0.0905 0.3188 0.3744, -0.1108 0.2923 0.3744, -0.1236 0.2615 0.3744, -0.128 0.2283 0.3744, -0.1236 0.1952 0.3744, -0.1108 0.1644 0.3744, -0.0905 0.1379 0.3744, -0.064 0.1175 0.3744, -0.0331 0.1048 0.3744, 0.0 0.1004 0.3744, 0.0331 0.1048 0.3744, 0.064 0.1175 0.3744, 0.0905 0.1379 0.3744, 0.1108 0.1644 0.3744, 0.1236 0.1952 0.3744
            ]
        }
        coordIndex [
            0,1,2,-1,2,1,3,-1,4,5,6,-1,6,5,7,-1,8,9,10,-1,10,9,11,-1,12,13,14,-1,14,13,15,-1,4,6,16,-1,4,16,17,-1,17,16,18,-1,17,18,19,-1,19,18,20,-1,19,20,21,-1,21,20,22,-1,21,22,23,-1,23,22,24,-1,23,24,25,-1,25,24,8,-1,25,8,10,-1,0,2,26,-1,0,26,27,-1,27,26,28,-1,27,28,29,-1,29,28,30,-1,29,30,31,-1,31,30,32,-1,31,32,33,-1,33,32,34,-1,33,34,35,-1,35,34,7,-1,35,7,5,-1,12,14,36,-1,12,36,37,-1,37,36,38,-1,37,38,39,-1,39,38,40,-1,39,40,41,-1,41,40,42,-1,41,42,43,-1,43,42,44,-1,43,44,45,-1,45,44,3,-1,45,3,1,-1,11,9,46,-1,11,46,47,-1,47,46,48,-1,47,48,49,-1,49,48,50,-1,49,50,51,-1,51,50,52,-1,51,52,53,-1,53,52,54,-1,53,54,55,-1,55,54,15,-1,55,15,13,-1,56,57,58,-1,58,57,59,-1,59,57,60,-1,60,57,61,-1,60,61,62,-1,62,61,63,-1,63,61,64,-1,63,64,65,-1,65,64,66,-1,66,64,67,-1,66,67,68,-1,68,67,69,-1,69,67,70,-1,69,70,71,-1,71,70,72,-1,72,70,73,-1,72,73,74,-1,74,73,75,-1,74,75,76,-1,76,75,77,-1,77,75,78,-1,78,79,77,-1,77,79,80,-1,80,79,81,-1,81,79,82,-1,81,82,83,-1,83,82,84,-1,84,82,85,-1,84,85,86,-1,86,85,87,-1,87,85,88,-1,87,88,89,-1,89,88,90,-1,90,88,91,-1,90,91,92,-1,92,91,93,-1,93,91,94,-1,93,94,95,-1,95,94,96,-1,95,96,97,-1,97,96,98,-1,98,96,99,-1,98,99,100,-1,98,100,101,-1,101,100,102,-1,101,102,103,-1,103,102,104,-1,103,104,105,-1,105,104,106,-1,105,106,107,-1,107,106,108,-1,107,108,109,-1,109,108,110,-1,109,110,111,-1,111,110,112,-1,112,110,113,-1,112,113,114,-1,112,114,115,-1,115,114,116,-1,115,116,117,-1,117,116,118,-1,117,118,119,-1,119,118,120,-1,119,120,121,-1,121,120,122,-1,121,122,123,-1,123,122,124,-1,123,124,125,-1,125,124,58,-1,58,124,56,-1,126,127,128,-1,129,130,131,-1,131,130,132,-1,131,132,128,-1,128,132,133,-1,128,133,126,-1,134,135,136,-1,134,136,137,-1,138,139,131,-1,131,139,140,-1,131,140,129,-1,127,141,128,-1,128,141,142,-1,128,142,136,-1,136,142,143,-1,136,143,137,-1,144,145,146,-1,146,145,147,-1,135,148,136,-1,136,148,149,-1,136,149,145,-1,145,149,150,-1,145,150,147,-1,144,151,145,-1,145,151,152,-1,145,152,131,-1,131,152,153,-1,131,153,138,-1,154,155,156,-1,156,155,157,-1,157,155,158,-1,157,158,159,-1,159,158,160,-1,159,160,161,-1,161,160,136,-1,161,136,145,-1,162,163,164,-1,164,163,165,-1,164,165,166,-1,154,156,167,-1,167,156,168,-1,167,168,169,-1,169,168,170,-1,169,170,171,-1,171,170,172,-1,171,172,165,-1,165,172,173,-1,165,173,166,-1,162,164,174,-1,174,164,175,-1,174,175,176,-1,175,177,176,-1,176,177,178,-1,176,178,179,-1,179,178,97,-1,179,97,98,-1,180,181,182,-1,176,179,183,-1,184,185,186,-1,162,174,187,-1,188,189,190,-1,167,169,191,-1,192,193,136,-1,192,136,194,-1,195,196,193,-1,193,196,136,-1,136,160,197,-1,197,160,198,-1,197,198,199,-1,199,136,197,-1,200,195,201,-1,201,195,193,-1,201,193,202,-1,202,193,192,-1,202,192,203,-1,203,192,194,-1,203,194,204,-1,160,158,198,-1,198,158,155,-1,198,155,154,-1,205,200,206,-1,206,200,201,-1,206,201,207,-1,207,201,202,-1,207,202,208,-1,208,202,203,-1,208,203,209,-1,209,203,204,-1,209,204,210,-1,154,167,210,-1,210,167,191,-1,210,191,209,-1,209,191,211,-1,209,211,208,-1,208,211,212,-1,208,212,207,-1,207,212,213,-1,207,213,206,-1,206,213,190,-1,154,210,198,-1,198,210,204,-1,198,204,199,-1,199,204,194,-1,199,194,136,-1,190,189,206,-1,206,189,214,-1,206,214,205,-1,215,188,216,-1,216,188,190,-1,216,190,217,-1,217,190,213,-1,217,213,218,-1,218,213,212,-1,218,212,219,-1,219,212,211,-1,219,211,220,-1,220,211,191,-1,220,191,171,-1,171,191,169,-1,185,215,186,-1,186,215,216,-1,186,216,221,-1,221,216,217,-1,221,217,222,-1,222,217,218,-1,222,218,223,-1,223,218,219,-1,223,219,224,-1,224,219,220,-1,162,187,163,-1,181,184,182,-1,182,184,186,-1,182,186,225,-1,225,186,221,-1,225,221,226,-1,226,221,222,-1,226,222,227,-1,227,222,223,-1,227,223,187,-1,187,223,224,-1,187,224,163,-1,163,224,220,-1,163,220,165,-1,165,220,171,-1,228,180,229,-1,229,180,182,-1,229,182,230,-1,230,182,225,-1,230,225,231,-1,231,225,226,-1,231,226,232,-1,232,226,227,-1,232,227,183,-1,183,227,187,-1,183,187,176,-1,176,187,174,-1,111,228,109,-1,109,228,229,-1,109,229,107,-1,107,229,230,-1,107,230,105,-1,105,230,231,-1,105,231,103,-1,103,231,232,-1,103,232,101,-1,101,232,183,-1,101,183,98,-1,98,183,179,-1,233,234,235,-1,235,234,236,-1,235,236,145,-1,168,156,237,-1,237,156,157,-1,237,157,238,-1,238,157,159,-1,238,159,239,-1,239,159,161,-1,239,161,145,-1,233,240,234,-1,234,240,241,-1,234,241,242,-1,242,241,243,-1,242,243,244,-1,243,245,244,-1,244,245,246,-1,244,246,247,-1,247,246,248,-1,247,248,249,-1,168,237,170,-1,170,237,250,-1,170,250,172,-1,172,250,251,-1,172,251,173,-1,173,251,252,-1,173,252,166,-1,253,254,249,-1,249,254,255,-1,249,255,247,-1,166,252,164,-1,164,252,256,-1,164,256,175,-1,257,258,259,-1,259,258,254,-1,259,254,260,-1,260,254,253,-1,145,261,262,-1,262,261,263,-1,262,263,264,-1,264,263,265,-1,264,265,266,-1,266,265,267,-1,266,267,268,-1,268,267,269,-1,268,269,270,-1,270,269,271,-1,270,271,272,-1,272,271,273,-1,272,273,274,-1,274,273,275,-1,274,275,276,-1,145,277,239,-1,239,277,278,-1,239,278,238,-1,238,278,279,-1,238,279,237,-1,237,279,280,-1,237,280,250,-1,250,280,281,-1,250,281,251,-1,251,281,282,-1,251,282,252,-1,252,282,283,-1,252,283,256,-1,256,283,284,-1,256,284,285,-1,257,77,80,-1,257,80,258,-1,258,80,81,-1,258,81,83,-1,83,275,258,-1,258,275,273,-1,258,273,254,-1,254,273,271,-1,254,271,255,-1,255,271,269,-1,255,269,247,-1,247,269,267,-1,247,267,244,-1,244,267,265,-1,244,265,242,-1,242,265,263,-1,242,263,234,-1,234,263,261,-1,234,261,236,-1,236,261,145,-1,83,84,275,-1,275,84,86,-1,275,86,276,-1,276,86,87,-1,276,87,89,-1,89,284,276,-1,276,284,283,-1,276,283,274,-1,274,283,282,-1,274,282,272,-1,272,282,281,-1,272,281,270,-1,270,281,280,-1,270,280,268,-1,268,280,279,-1,268,279,266,-1,266,279,278,-1,266,278,264,-1,264,278,277,-1,264,277,262,-1,262,277,145,-1,89,90,284,-1,284,90,92,-1,284,92,285,-1,285,92,93,-1,285,93,95,-1,175,256,177,-1,177,256,285,-1,177,285,178,-1,178,285,95,-1,178,95,97,-1,128,136,286,-1,286,136,196,-1,286,196,287,-1,205,288,200,-1,200,288,287,-1,200,287,195,-1,195,287,196,-1,215,289,188,-1,188,289,290,-1,188,290,189,-1,189,290,291,-1,189,291,214,-1,214,291,292,-1,214,292,205,-1,205,292,293,-1,205,293,288,-1,185,294,215,-1,215,294,295,-1,215,295,289,-1,180,296,181,-1,181,296,294,-1,181,294,184,-1,184,294,185,-1,111,112,228,-1,228,112,297,-1,228,297,180,-1,180,297,298,-1,180,298,296,-1,259,299,257,-1,257,299,76,-1,257,76,77,-1,253,300,260,-1,260,300,301,-1,260,301,259,-1,259,301,302,-1,259,302,299,-1,303,304,248,-1,253,249,300,-1,300,249,248,-1,300,248,305,-1,305,248,304,-1,248,246,303,-1,303,246,245,-1,303,245,306,-1,306,245,243,-1,306,243,307,-1,308,309,240,-1,243,241,307,-1,307,241,240,-1,307,240,310,-1,310,240,309,-1,240,233,308,-1,308,233,235,-1,308,235,311,-1,311,235,145,-1,311,145,131,-1,312,313,314,-1,298,297,315,-1,316,317,318,-1,294,296,319,-1,320,321,322,-1,292,291,323,-1,324,325,128,-1,324,128,326,-1,327,328,325,-1,325,328,128,-1,128,286,329,-1,329,286,330,-1,329,330,331,-1,331,128,329,-1,332,327,333,-1,333,327,325,-1,333,325,334,-1,334,325,324,-1,334,324,335,-1,335,324,326,-1,335,326,336,-1,286,287,330,-1,330,287,288,-1,330,288,293,-1,337,332,338,-1,338,332,333,-1,338,333,339,-1,339,333,334,-1,339,334,340,-1,340,334,335,-1,340,335,341,-1,341,335,336,-1,341,336,342,-1,293,292,342,-1,342,292,323,-1,342,323,341,-1,341,323,343,-1,341,343,340,-1,340,343,344,-1,340,344,339,-1,339,344,345,-1,339,345,338,-1,338,345,322,-1,293,342,330,-1,330,342,336,-1,330,336,331,-1,331,336,326,-1,331,326,128,-1,322,321,338,-1,338,321,346,-1,338,346,337,-1,347,320,348,-1,348,320,322,-1,348,322,349,-1,349,322,345,-1,349,345,350,-1,350,345,344,-1,350,344,351,-1,351,344,343,-1,351,343,352,-1,352,343,323,-1,352,323,290,-1,290,323,291,-1,317,347,318,-1,318,347,348,-1,318,348,353,-1,353,348,349,-1,353,349,354,-1,354,349,350,-1,354,350,355,-1,355,350,351,-1,355,351,356,-1,356,351,352,-1,294,319,295,-1,313,316,314,-1,314,316,318,-1,314,318,357,-1,357,318,353,-1,357,353,358,-1,358,353,354,-1,358,354,359,-1,359,354,355,-1,359,355,319,-1,319,355,356,-1,319,356,295,-1,295,356,352,-1,295,352,289,-1,289,352,290,-1,360,312,361,-1,361,312,314,-1,361,314,362,-1,362,314,357,-1,362,357,363,-1,363,357,358,-1,363,358,364,-1,364,358,359,-1,364,359,315,-1,315,359,319,-1,315,319,298,-1,298,319,296,-1,125,360,123,-1,123,360,361,-1,123,361,121,-1,121,361,362,-1,121,362,119,-1,119,362,363,-1,119,363,117,-1,117,363,364,-1,117,364,115,-1,115,364,315,-1,115,315,112,-1,112,315,297,-1,365,366,367,-1,367,366,368,-1,367,368,131,-1,307,310,369,-1,369,310,309,-1,369,309,370,-1,370,309,308,-1,370,308,371,-1,371,308,311,-1,371,311,131,-1,365,372,366,-1,366,372,373,-1,366,373,374,-1,374,373,375,-1,374,375,376,-1,375,377,376,-1,376,377,378,-1,376,378,379,-1,379,378,380,-1,379,380,381,-1,307,369,306,-1,306,369,382,-1,306,382,303,-1,303,382,383,-1,303,383,304,-1,304,383,384,-1,304,384,305,-1,385,386,381,-1,381,386,387,-1,381,387,379,-1,305,384,300,-1,300,384,388,-1,300,388,301,-1,389,390,391,-1,391,390,386,-1,391,386,392,-1,392,386,385,-1,131,393,394,-1,394,393,395,-1,394,395,396,-1,396,395,397,-1,396,397,398,-1,398,397,399,-1,398,399,400,-1,400,399,401,-1,400,401,402,-1,402,401,403,-1,402,403,404,-1,404,403,405,-1,404,405,406,-1,406,405,407,-1,406,407,408,-1,131,409,371,-1,371,409,410,-1,371,410,370,-1,370,410,411,-1,370,411,369,-1,369,411,412,-1,369,412,382,-1,382,412,413,-1,382,413,383,-1,383,413,414,-1,383,414,384,-1,384,414,415,-1,384,415,388,-1,388,415,416,-1,388,416,417,-1,389,58,59,-1,389,59,390,-1,390,59,60,-1,390,60,62,-1,62,407,390,-1,390,407,405,-1,390,405,386,-1,386,405,403,-1,386,403,387,-1,387,403,401,-1,387,401,379,-1,379,401,399,-1,379,399,376,-1,376,399,397,-1,376,397,374,-1,374,397,395,-1,374,395,366,-1,366,395,393,-1,366,393,368,-1,368,393,131,-1,62,63,407,-1,407,63,65,-1,407,65,408,-1,408,65,66,-1,408,66,68,-1,68,416,408,-1,408,416,415,-1,408,415,406,-1,406,415,414,-1,406,414,404,-1,404,414,413,-1,404,413,402,-1,402,413,412,-1,402,412,400,-1,400,412,411,-1,400,411,398,-1,398,411,410,-1,398,410,396,-1,396,410,409,-1,396,409,394,-1,394,409,131,-1,68,69,416,-1,416,69,71,-1,416,71,417,-1,417,71,72,-1,417,72,74,-1,301,388,302,-1,302,388,417,-1,302,417,299,-1,299,417,74,-1,299,74,76,-1,131,128,367,-1,367,128,328,-1,367,328,365,-1,337,372,332,-1,332,372,365,-1,332,365,327,-1,327,365,328,-1,347,380,320,-1,320,380,378,-1,320,378,321,-1,321,378,377,-1,321,377,346,-1,346,377,375,-1,346,375,337,-1,337,375,373,-1,337,373,372,-1,317,385,347,-1,347,385,381,-1,347,381,380,-1,312,392,313,-1,313,392,385,-1,313,385,316,-1,316,385,317,-1,125,58,360,-1,360,58,389,-1,360,389,312,-1,312,389,391,-1,312,391,392,-1,418,132,419,-1,419,132,130,-1,419,130,420,-1,420,130,129,-1,420,129,421,-1,421,129,140,-1,421,140,422,-1,422,140,139,-1,422,139,423,-1,423,139,138,-1,423,138,424,-1,424,138,153,-1,424,153,425,-1,425,153,152,-1,425,152,426,-1,426,152,151,-1,426,151,427,-1,427,151,144,-1,427,144,428,-1,428,144,146,-1,428,146,429,-1,429,146,147,-1,429,147,430,-1,430,147,150,-1,430,150,431,-1,431,150,149,-1,431,149,432,-1,432,149,148,-1,432,148,433,-1,433,148,135,-1,433,135,434,-1,434,135,134,-1,434,134,435,-1,435,134,137,-1,435,137,436,-1,436,137,143,-1,436,143,437,-1,437,143,142,-1,437,142,438,-1,438,142,141,-1,438,141,439,-1,439,141,127,-1,439,127,440,-1,440,127,126,-1,440,126,441,-1,441,126,133,-1,441,133,418,-1,418,133,132,-1,
        ]
    }
}
Shape{
    appearance Appearance {
        material  Material 	{
            diffuseColor 0.20784313725490197 0.20784313725490197 0.20784313725490197
            specularColor 0.01568627450980392 0.01568627450980392 0.01568627450980392
            ambientIntensity 0.298
            transparency 0.0
            shininess 0.5
        }
    }
    geometry IndexedFaceSet {
        ccw TRUE
        solid FALSE
        coord DEF co Coordinate {
            point [
                0.1108 0.1644 0.3744, 0.1236 0.1952 0.3744, 0.0 0.2283 0.3744, 0.128 0.2283 0.3744, 0.1236 0.2615 0.3744, 0.0331 0.1048 0.3744, 0.064 0.1175 0.3744, 0.0905 0.1379 0.3744, -0.064 0.1175 0.3744, -0.0331 0.1048 0.3744, 0.0 0.1004 0.3744, -0.1236 0.1952 0.3744, -0.1108 0.1644 0.3744, -0.0905 0.1379 0.3744, -0.1108 0.2923 0.3744, -0.1236 0.2615 0.3744, -0.128 0.2283 0.3744, -0.0331 0.3519 0.3744, -0.064 0.3392 0.3744, -0.0905 0.3188 0.3744, 0.064 0.3392 0.3744, 0.0331 0.3519 0.3744, 0.0 0.3563 0.3744, 0.1108 0.2923 0.3744, 0.0905 0.3188 0.3744
            ]
        }
        coordIndex [
            0,1,2,-1,2,1,3,-1,2,3,4,-1,5,6,2,-1,2,6,7,-1,2,7,0,-1,8,9,2,-1,2,9,10,-1,2,10,5,-1,11,12,2,-1,2,12,13,-1,2,13,8,-1,14,15,2,-1,2,15,16,-1,2,16,11,-1,17,18,2,-1,2,18,19,-1,2,19,14,-1,20,21,2,-1,2,21,22,-1,2,22,17,-1,4,23,2,-1,2,23,24,-1,2,24,20,-1,
        ]
    }
}
Shape{
    appearance Appearance {
        material  Material 	{
            diffuseColor 0.8274509803921568 0.6666666666666666 0.12941176470588237
            specularColor 0.8274509803921568 0.6666666666666666 0.12941176470588237
            ambientIntensity 0.6535
            transparency 0.0
            shininess 0.5
        }
    }
    geometry IndexedFaceSet {
        ccw TRUE
        solid FALSE
        coord DEF co Coordinate {
            point [
                0.2559 0.0787 0.0, 0.2559 0.4528 0.0, 0.2559 0.0787 0.0004, 0.2559 0.4528 0.0004, 0.0787 0.0787 0.0, 0.0787 0.0787 0.0004, 0.0787 0.4528 0.0, 0.0787 0.4528 0.0004, -0.2559 0.4528 0.0, -0.2559 0.0787 0.0, -0.2559 0.4528 0.0004, -0.2559 0.0787 0.0004, -0.0787 0.4528 0.0, -0.0787 0.4528 0.0004, -0.0787 0.0787 0.0, -0.0787 0.0787 0.0004, -0.2559 -0.0787 0.0, -0.2559 -0.4528 0.0, -0.2559 -0.0787 0.0004, -0.2559 -0.4528 0.0004, -0.0787 -0.0787 0.0, -0.0787 -0.0787 0.0004, -0.0787 -0.4528 0.0, -0.0787 -0.4528 0.0004, 0.2559 -0.4528 0.0, 0.2559 -0.0787 0.0, 0.2559 -0.4528 0.0004, 0.2559 -0.0787 0.0004, 0.0787 -0.4528 0.0, 0.0787 -0.4528 0.0004, 0.0787 -0.0787 0.0, 0.0787 -0.0787 0.0004, 0.5902 -0.0673 0.0004, 0.5902 -0.4528 0.0004, 0.5902 -0.4528 0.0, 0.5902 0.4528 0.0004, 0.5902 0.0518 0.0004, 0.5902 0.4528 0.0, 0.5902 0.0243 0.0004, 0.5902 -0.0554 0.0004, 0.4528 -0.4528 0.0, 0.4528 -0.4528 0.0004, 0.4134 -0.4134 0.0, 0.4134 -0.4134 0.0004, 0.4134 -0.0673 0.0004, 0.4134 -0.0554 0.0004, 0.4134 0.0243 0.0004, 0.4134 0.4134 0.0, 0.4134 0.0518 0.0004, 0.4134 0.4134 0.0004, 0.4528 0.4528 0.0, 0.4528 0.4528 0.0004, -0.5902 -0.4528 0.0, -0.5902 -0.4528 0.0004, -0.5902 -0.0673 0.0004, -0.5902 -0.0554 0.0004, -0.5902 0.0243 0.0004, -0.5902 0.4528 0.0, -0.5902 0.0518 0.0004, -0.5902 0.4528 0.0004, -0.4528 0.4528 0.0, -0.4528 0.4528 0.0004, -0.4134 0.4134 0.0, -0.4134 0.4134 0.0004, -0.4134 -0.0673 0.0004, -0.4134 -0.4134 0.0004, -0.4134 -0.4134 0.0, -0.4134 0.0518 0.0004, -0.4134 0.0243 0.0004, -0.4134 -0.0554 0.0004, -0.4528 -0.4528 0.0, -0.4528 -0.4528 0.0004, -0.2559 0.787 0.0, -0.2559 0.6496 0.0, -0.2559 0.787 0.0004, -0.2559 0.6496 0.0004, 0.0639 0.787 0.0004, 0.2559 0.787 0.0004, 0.2559 0.787 0.0, -0.0514 0.787 0.0004, -0.0163 0.787 0.0004, 0.0413 0.787 0.0004, 0.2559 0.6496 0.0, 0.2559 0.6496 0.0004, 0.2165 0.6102 0.0, 0.2165 0.6102 0.0004, 0.0639 0.6102 0.0004, 0.0413 0.6102 0.0004, -0.0163 0.6102 0.0004, -0.2165 0.6102 0.0, -0.0514 0.6102 0.0004, -0.2165 0.6102 0.0004, -0.2559 -0.6496 0.0, -0.2559 -0.787 0.0, -0.2559 -0.6496 0.0004, -0.2559 -0.787 0.0004, -0.2165 -0.6102 0.0, -0.2165 -0.6102 0.0004, 0.0639 -0.6102 0.0004, 0.2165 -0.6102 0.0004, 0.2165 -0.6102 0.0, -0.0514 -0.6102 0.0004, -0.0163 -0.6102 0.0004, 0.0413 -0.6102 0.0004, 0.2559 -0.6496 0.0, 0.2559 -0.6496 0.0004, 0.2559 -0.787 0.0, 0.2559 -0.787 0.0004, 0.0639 -0.787 0.0004, 0.0413 -0.787 0.0004, -0.0163 -0.787 0.0004, -0.0514 -0.787 0.0004
            ]
        }
        coordIndex [
            0,1,2,-1,2,1,3,-1,4,0,5,-1,5,0,2,-1,6,4,7,-1,7,4,5,-1,1,6,3,-1,3,6,7,-1,4,6,0,-1,0,6,1,-1,8,9,10,-1,10,9,11,-1,12,8,13,-1,13,8,10,-1,14,12,15,-1,15,12,13,-1,9,14,11,-1,11,14,15,-1,12,14,8,-1,8,14,9,-1,16,17,18,-1,18,17,19,-1,20,16,21,-1,21,16,18,-1,22,20,23,-1,23,20,21,-1,17,22,19,-1,19,22,23,-1,20,22,16,-1,16,22,17,-1,24,25,26,-1,26,25,27,-1,28,24,29,-1,29,24,26,-1,30,28,31,-1,31,28,29,-1,25,30,27,-1,27,30,31,-1,28,30,24,-1,24,30,25,-1,32,33,34,-1,35,36,37,-1,37,36,38,-1,37,38,34,-1,34,38,39,-1,34,39,32,-1,40,34,41,-1,41,34,33,-1,42,40,43,-1,43,40,41,-1,42,43,44,-1,44,45,42,-1,42,45,46,-1,42,46,47,-1,47,46,48,-1,47,48,49,-1,50,47,51,-1,51,47,49,-1,37,50,35,-1,35,50,51,-1,47,50,42,-1,42,50,37,-1,42,37,40,-1,40,37,34,-1,52,53,54,-1,54,55,52,-1,52,55,56,-1,52,56,57,-1,57,56,58,-1,57,58,59,-1,60,57,61,-1,61,57,59,-1,62,60,63,-1,63,60,61,-1,64,65,66,-1,63,67,62,-1,62,67,68,-1,62,68,66,-1,66,68,69,-1,66,69,64,-1,70,66,71,-1,71,66,65,-1,52,70,53,-1,53,70,71,-1,66,70,62,-1,62,70,52,-1,62,52,60,-1,60,52,57,-1,72,73,74,-1,74,73,75,-1,76,77,78,-1,74,79,72,-1,72,79,80,-1,72,80,78,-1,78,80,81,-1,78,81,76,-1,82,78,83,-1,83,78,77,-1,84,82,85,-1,85,82,83,-1,84,85,86,-1,86,87,84,-1,84,87,88,-1,84,88,89,-1,89,88,90,-1,89,90,91,-1,73,89,75,-1,75,89,91,-1,89,73,72,-1,84,89,82,-1,82,89,72,-1,82,72,78,-1,92,93,94,-1,94,93,95,-1,96,92,97,-1,97,92,94,-1,98,99,100,-1,97,101,96,-1,96,101,102,-1,96,102,100,-1,100,102,103,-1,100,103,98,-1,104,100,105,-1,105,100,99,-1,106,104,107,-1,107,104,105,-1,106,107,108,-1,108,109,106,-1,106,109,110,-1,106,110,93,-1,93,110,111,-1,93,111,95,-1,104,106,100,-1,100,106,93,-1,100,93,96,-1,96,93,92,-1,
        ]
    }
}
Shape{
    appearance Appearance {
        material  Material 	{
            diffuseColor 1.0 1.0 1.0
            specularColor 0.8784313725490196 0.8784313725490196 0.8784313725490196
            ambientIntensity 1.0
            transparency 0.0
            shininess 0.5
        }
    }
    geometry IndexedFaceSet {
        ccw TRUE
        solid FALSE
        coord DEF co Coordinate {
            point [
                -0.1335 0.0238 0.0008, -0.1642 -0.0549 0.0008, -0.1335 0.0238 0.0004, -0.1642 -0.0549 0.0004, -0.1527 -0.0549 0.0008, -0.1527 -0.0549 0.0004, -0.1447 -0.0328 0.0008, -0.1447 -0.0328 0.0004, -0.1122 -0.0328 0.0008, -0.1122 -0.0328 0.0004, -0.1047 -0.0549 0.0008, -0.1047 -0.0549 0.0004, -0.0931 -0.0549 0.0008, -0.0931 -0.0549 0.0004, -0.1229 0.0238 0.0008, -0.1229 0.0238 0.0004, -0.1148 -0.0242 0.0008, -0.1412 -0.0242 0.0008, -0.1266 0.0087 0.0008, -0.1273 0.0114 0.0008, -0.1278 0.0142 0.0008, -0.1281 0.0142 0.0008, -0.1286 0.0114 0.0008, -0.1293 0.0087 0.0008, -0.1148 -0.0242 0.0004, -0.1412 -0.0242 0.0004, -0.1266 0.0087 0.0004, -0.1273 0.0114 0.0004, -0.1278 0.0142 0.0004, -0.1281 0.0142 0.0004, -0.1286 0.0114 0.0004, -0.1293 0.0087 0.0004, -0.0454 -0.0549 0.0008, -0.024 -0.0549 0.0008, -0.0454 -0.0549 0.0004, -0.024 -0.0549 0.0004, -0.024 0.0238 0.0008, -0.024 0.0238 0.0004, -0.0462 0.0238 0.0008, -0.0462 0.0238 0.0004, -0.0514 0.0233 0.0004, -0.0576 0.0226 0.0008, -0.0576 0.0226 0.0004, -0.0668 0.0194 0.0008, -0.0668 0.0194 0.0004, -0.0754 0.0136 0.0008, -0.0754 0.0136 0.0004, -0.0755 0.0136 0.0008, -0.0755 0.0136 0.0004, -0.081 0.0074 0.0008, -0.081 0.0074 0.0004, -0.0847 0.0006 0.0008, -0.0847 0.0006 0.0004, -0.0868 -0.0071 0.0008, -0.0868 -0.0071 0.0004, -0.0874 -0.0146 0.0008, -0.0874 -0.0146 0.0004, -0.0552 -0.0541 0.0008, -0.0514 -0.0544 0.0004, -0.0552 -0.0541 0.0004, -0.0642 -0.0514 0.0004, -0.0642 -0.0514 0.0008, -0.0725 -0.0466 0.0004, -0.0725 -0.0466 0.0008, -0.0789 -0.0404 0.0004, -0.0789 -0.0404 0.0008, -0.0835 -0.0333 0.0004, -0.0835 -0.0333 0.0008, -0.0863 -0.0251 0.0004, -0.0863 -0.0251 0.0008, -0.0716 0.0041 0.0008, -0.0678 0.0082 0.0008, -0.062 0.0119 0.0008, -0.0555 0.0142 0.0008, -0.0462 0.0152 0.0008, -0.0346 0.0152 0.0008, -0.0346 -0.0463 0.0008, -0.0457 -0.0463 0.0008, -0.0541 -0.0455 0.0008, -0.0607 -0.0434 0.0008, -0.066 -0.0402 0.0008, -0.0705 -0.0359 0.0008, -0.0738 -0.0304 0.0008, -0.0761 -0.023 0.0008, -0.0768 -0.0148 0.0008, -0.0762 -0.0069 0.0008, -0.0743 -0.0007 0.0008, -0.0462 0.0152 0.0004, -0.0346 0.0152 0.0004, -0.0555 0.0142 0.0004, -0.062 0.0119 0.0004, -0.0678 0.0082 0.0004, -0.0716 0.0041 0.0004, -0.0743 -0.0007 0.0004, -0.0762 -0.0069 0.0004, -0.0768 -0.0148 0.0004, -0.0761 -0.023 0.0004, -0.0738 -0.0304 0.0004, -0.0705 -0.0359 0.0004, -0.066 -0.0402 0.0004, -0.0607 -0.0434 0.0004, -0.0541 -0.0455 0.0004, -0.0457 -0.0463 0.0004, -0.0346 -0.0463 0.0004, -0.0086 -0.0463 0.0008, -0.0086 -0.0549 0.0008, -0.0086 -0.0463 0.0004, -0.0086 -0.0549 0.0004, 0.0336 -0.0549 0.0008, 0.0336 -0.0549 0.0004, 0.0336 0.0238 0.0008, 0.0336 0.0238 0.0004, -0.0067 0.0238 0.0008, -0.0067 0.0238 0.0004, -0.0067 0.0152 0.0008, -0.0067 0.0152 0.0004, 0.023 0.0152 0.0008, 0.023 0.0152 0.0004, 0.023 -0.0107 0.0008, 0.023 -0.0107 0.0004, -0.0048 -0.0107 0.0008, -0.0048 -0.0107 0.0004, -0.0048 -0.0194 0.0008, -0.0048 -0.0194 0.0004, 0.023 -0.0194 0.0008, 0.023 -0.0194 0.0004, 0.023 -0.0463 0.0008, 0.023 -0.0463 0.0004, 0.049 -0.0422 0.0008, 0.049 -0.0508 0.0008, 0.049 -0.0422 0.0004, 0.049 -0.0508 0.0004, 0.0574 -0.0543 0.0008, 0.0685 -0.0558 0.0008, 0.0706 -0.0559 0.0008, 0.0685 -0.0558 0.0004, 0.0706 -0.0559 0.0004, 0.0653 -0.0554 0.0004, 0.0639 -0.0552 0.0004, 0.0574 -0.0543 0.0004, 0.0753 -0.0554 0.0004, 0.0803 -0.0549 0.0008, 0.0803 -0.0549 0.0004, 0.088 -0.0522 0.0008, 0.088 -0.0522 0.0004, 0.0943 -0.0482 0.0008, 0.0943 -0.0482 0.0004, 0.1002 -0.042 0.0008, 0.1002 -0.042 0.0004, 0.1044 -0.0345 0.0008, 0.1044 -0.0345 0.0004, 0.1068 -0.0261 0.0008, 0.1068 -0.0261 0.0004, 0.1075 -0.017 0.0008, 0.1075 -0.017 0.0004, 0.0754 0.0241 0.0008, 0.0675 0.0248 0.0008, 0.0734 0.0243 0.0004, 0.0675 0.0248 0.0004, 0.0754 0.0241 0.0004, 0.0842 0.0216 0.0004, 0.0842 0.0216 0.0008, 0.0917 0.0173 0.0004, 0.0917 0.0173 0.0008, 0.0988 0.0105 0.0004, 0.0988 0.0105 0.0008, 0.1034 0.0031 0.0004, 0.1034 0.0031 0.0008, 0.1064 -0.0058 0.0004, 0.1064 -0.0058 0.0008, 0.0581 0.0241 0.0008, 0.049 0.0217 0.0008, 0.0581 0.0241 0.0004, 0.049 0.0217 0.0004, 0.0605 0.0243 0.0004, 0.0639 0.0245 0.0004, 0.049 0.0111 0.0008, 0.049 0.0111 0.0004, 0.0578 0.0149 0.0008, 0.0674 0.0161 0.0008, 0.0674 0.0161 0.0004, 0.0639 0.0157 0.0004, 0.0578 0.0149 0.0004, 0.097 -0.0164 0.0008, 0.097 -0.0164 0.0004, 0.0966 -0.0103 0.0004, 0.0966 -0.0103 0.0008, 0.0945 -0.0018 0.0004, 0.0945 -0.0018 0.0008, 0.0913 0.0043 0.0004, 0.0913 0.0043 0.0008, 0.0865 0.0095 0.0004, 0.0865 0.0095 0.0008, 0.0811 0.0131 0.0004, 0.0811 0.0131 0.0008, 0.0752 0.0153 0.0004, 0.0752 0.0153 0.0008, 0.0692 -0.0472 0.0008, 0.0692 -0.0472 0.0004, 0.0765 -0.0464 0.0004, 0.0765 -0.0464 0.0008, 0.0823 -0.0443 0.0004, 0.0823 -0.0443 0.0008, 0.0871 -0.041 0.0004, 0.0871 -0.041 0.0008, 0.0908 -0.0371 0.0004, 0.0908 -0.0371 0.0008, 0.094 -0.0317 0.0004, 0.094 -0.0317 0.0008, 0.0962 -0.0249 0.0004, 0.0962 -0.0249 0.0008, 0.0639 -0.0466 0.0004, 0.0587 -0.0461 0.0008, 0.0587 -0.0461 0.0004, 0.0504 -0.043 0.0008, 0.0504 -0.043 0.0004, 0.1143 -0.0463 0.0008, 0.1143 -0.0549 0.0008, 0.1143 -0.0463 0.0004, 0.1143 -0.0549 0.0004, 0.1546 -0.0549 0.0008, 0.1546 -0.0549 0.0004, 0.1546 0.0238 0.0008, 0.1546 0.0238 0.0004, 0.144 0.0238 0.0008, 0.144 0.0238 0.0004, 0.144 -0.0463 0.0008, 0.144 -0.0463 0.0004
            ]
        }
        coordIndex [
            0,1,2,-1,2,1,3,-1,1,4,3,-1,3,4,5,-1,4,6,5,-1,5,6,7,-1,6,8,7,-1,7,8,9,-1,8,10,9,-1,9,10,11,-1,10,12,11,-1,11,12,13,-1,12,14,13,-1,13,14,15,-1,14,0,15,-1,15,0,2,-1,16,8,17,-1,17,8,6,-1,18,14,16,-1,16,14,12,-1,16,12,8,-1,8,12,10,-1,18,19,14,-1,14,19,20,-1,14,20,0,-1,0,20,21,-1,0,21,22,-1,22,23,0,-1,0,23,17,-1,0,17,1,-1,1,17,6,-1,1,6,4,-1,16,17,24,-1,24,17,25,-1,18,16,26,-1,26,16,24,-1,18,26,27,-1,18,27,19,-1,19,27,28,-1,19,28,20,-1,21,20,29,-1,29,20,28,-1,21,29,30,-1,21,30,22,-1,22,30,31,-1,22,31,23,-1,17,23,25,-1,25,23,31,-1,32,33,34,-1,34,33,35,-1,33,36,35,-1,35,36,37,-1,36,38,37,-1,37,38,39,-1,39,38,40,-1,40,38,41,-1,40,41,42,-1,42,41,43,-1,42,43,44,-1,44,43,45,-1,44,45,46,-1,46,45,47,-1,46,47,48,-1,48,47,49,-1,48,49,50,-1,50,49,51,-1,50,51,52,-1,52,51,53,-1,52,53,54,-1,54,53,55,-1,54,55,56,-1,57,32,58,-1,58,32,34,-1,58,59,57,-1,57,59,60,-1,57,60,61,-1,61,60,62,-1,61,62,63,-1,63,62,64,-1,63,64,65,-1,65,64,66,-1,65,66,67,-1,67,66,68,-1,67,68,69,-1,69,68,56,-1,69,56,55,-1,51,49,70,-1,70,49,47,-1,70,47,71,-1,71,47,45,-1,71,45,72,-1,72,45,43,-1,72,43,73,-1,73,43,41,-1,73,41,74,-1,74,41,38,-1,74,38,75,-1,75,38,36,-1,75,36,76,-1,76,36,33,-1,76,33,77,-1,77,33,32,-1,77,32,78,-1,78,32,57,-1,78,57,79,-1,79,57,61,-1,79,61,80,-1,80,61,63,-1,80,63,81,-1,81,63,65,-1,81,65,82,-1,82,65,67,-1,82,67,83,-1,83,67,69,-1,83,69,84,-1,84,69,55,-1,84,55,85,-1,85,55,53,-1,85,53,86,-1,86,53,51,-1,86,51,70,-1,74,75,87,-1,87,75,88,-1,74,87,89,-1,74,89,73,-1,73,89,90,-1,73,90,72,-1,72,90,91,-1,72,91,71,-1,71,91,92,-1,71,92,70,-1,70,92,93,-1,70,93,86,-1,86,93,94,-1,86,94,85,-1,85,94,95,-1,85,95,84,-1,84,95,96,-1,84,96,83,-1,83,96,97,-1,83,97,82,-1,82,97,98,-1,82,98,81,-1,81,98,99,-1,81,99,80,-1,80,99,100,-1,80,100,79,-1,79,100,101,-1,79,101,78,-1,78,101,102,-1,78,102,77,-1,76,77,103,-1,103,77,102,-1,75,76,88,-1,88,76,103,-1,104,105,106,-1,106,105,107,-1,105,108,107,-1,107,108,109,-1,108,110,109,-1,109,110,111,-1,110,112,111,-1,111,112,113,-1,112,114,113,-1,113,114,115,-1,114,116,115,-1,115,116,117,-1,116,118,117,-1,117,118,119,-1,118,120,119,-1,119,120,121,-1,120,122,121,-1,121,122,123,-1,122,124,123,-1,123,124,125,-1,124,126,125,-1,125,126,127,-1,126,104,127,-1,127,104,106,-1,108,105,104,-1,104,126,108,-1,108,126,124,-1,108,124,110,-1,114,112,116,-1,116,112,110,-1,116,110,118,-1,118,110,124,-1,118,124,120,-1,120,124,122,-1,128,129,130,-1,130,129,131,-1,131,129,132,-1,133,134,135,-1,135,134,136,-1,135,137,133,-1,133,137,138,-1,133,138,132,-1,132,138,139,-1,132,139,131,-1,136,134,140,-1,140,134,141,-1,140,141,142,-1,142,141,143,-1,142,143,144,-1,144,143,145,-1,144,145,146,-1,146,145,147,-1,146,147,148,-1,148,147,149,-1,148,149,150,-1,150,149,151,-1,150,151,152,-1,152,151,153,-1,152,153,154,-1,155,156,157,-1,157,156,158,-1,157,159,155,-1,155,159,160,-1,155,160,161,-1,161,160,162,-1,161,162,163,-1,163,162,164,-1,163,164,165,-1,165,164,166,-1,165,166,167,-1,167,166,168,-1,167,168,169,-1,169,168,154,-1,169,154,153,-1,170,171,172,-1,172,171,173,-1,172,174,170,-1,170,174,175,-1,170,175,156,-1,156,175,158,-1,171,176,173,-1,173,176,177,-1,177,176,178,-1,179,180,181,-1,179,181,178,-1,178,181,182,-1,178,182,177,-1,183,184,185,-1,183,185,186,-1,186,185,187,-1,186,187,188,-1,188,187,189,-1,188,189,190,-1,190,189,191,-1,190,191,192,-1,192,191,193,-1,192,193,194,-1,194,193,195,-1,194,195,196,-1,196,195,180,-1,196,180,179,-1,197,198,199,-1,197,199,200,-1,200,199,201,-1,200,201,202,-1,202,201,203,-1,202,203,204,-1,204,203,205,-1,204,205,206,-1,206,205,207,-1,206,207,208,-1,208,207,209,-1,208,209,210,-1,210,209,184,-1,210,184,183,-1,198,197,211,-1,211,197,212,-1,211,212,213,-1,213,212,214,-1,213,214,215,-1,215,214,128,-1,215,128,130,-1,200,134,197,-1,197,134,133,-1,197,133,212,-1,212,133,132,-1,212,132,214,-1,214,132,129,-1,214,129,128,-1,176,171,178,-1,178,171,170,-1,178,170,179,-1,179,170,156,-1,179,156,196,-1,196,156,155,-1,196,155,194,-1,194,155,161,-1,194,161,192,-1,192,161,163,-1,192,163,190,-1,190,163,165,-1,190,165,188,-1,188,165,167,-1,188,167,186,-1,186,167,169,-1,186,169,183,-1,183,169,153,-1,183,153,210,-1,210,153,151,-1,210,151,208,-1,208,151,149,-1,208,149,206,-1,206,149,147,-1,206,147,204,-1,204,147,145,-1,204,145,202,-1,202,145,143,-1,202,143,200,-1,200,143,141,-1,200,141,134,-1,216,217,218,-1,218,217,219,-1,217,220,219,-1,219,220,221,-1,220,222,221,-1,221,222,223,-1,222,224,223,-1,223,224,225,-1,224,226,225,-1,225,226,227,-1,226,216,227,-1,227,216,218,-1,224,222,226,-1,226,222,220,-1,226,220,216,-1,216,220,217,-1,
        ]
    }
}
Shape{
    appearance Appearance {
        material  Material 	{
            diffuseColor 0.2 0.4627450980392157 0.23137254901960785
            specularColor 0.01568627450980392 0.03137254901960784 0.01568627450980392
            ambientIntensity 0.5122
            transparency 0.0
            shininess 0.5
        }
    }
    geometry IndexedFaceSet {
        ccw TRUE
        solid FALSE
        coord DEF co Coordinate {
            point [
                -0.1148 -0.0242 0.0004, -0.1412 -0.0242 0.0004, -0.1266 0.0087 0.0004, -0.1293 0.0087 0.0004, -0.1273 0.0114 0.0004, -0.1286 0.0114 0.0004, -0.1278 0.0142 0.0004, -0.1281 0.0142 0.0004, -0.0346 0.0152 0.0004, -0.0346 -0.0463 0.0004, -0.0462 0.0152 0.0004, -0.0457 -0.0463 0.0004, -0.0541 -0.0455 0.0004, -0.0768 -0.0148 0.0004, -0.0762 -0.0069 0.0004, -0.0743 -0.0007 0.0004, -0.0555 0.0142 0.0004, -0.0607 -0.0434 0.0004, -0.066 -0.0402 0.0004, -0.0705 -0.0359 0.0004, -0.0738 -0.0304 0.0004, -0.0761 -0.023 0.0004, -0.0716 0.0041 0.0004, -0.0678 0.0082 0.0004, -0.062 0.0119 0.0004
            ]
        }
        coordIndex [
            0,1,2,-1,2,1,3,-1,2,3,4,-1,4,3,5,-1,4,5,6,-1,6,5,7,-1,8,9,10,-1,10,9,11,-1,10,11,12,-1,13,14,10,-1,10,14,15,-1,10,15,16,-1,12,17,10,-1,10,17,18,-1,10,18,19,-1,19,20,10,-1,10,20,21,-1,10,21,13,-1,22,23,15,-1,15,23,24,-1,15,24,16,-1,
        ]
    }
}